<svg width="337" height="302" viewBox="0 0 337 302" fill="none" xmlns="http://www.w3.org/2000/svg">
<path fill-rule="evenodd" clip-rule="evenodd" d="M176.742 163.576C145.11 163.576 119.467 189.054 119.467 220.482C119.467 251.911 145.11 277.389 176.742 277.389C208.374 277.389 234.016 251.911 234.016 220.482C234.016 189.054 208.374 163.576 176.742 163.576ZM95.3268 220.482C95.3268 175.807 131.778 139.59 176.742 139.59C221.706 139.59 258.157 175.807 258.157 220.482C258.157 265.158 221.706 301.374 176.742 301.374C131.778 301.374 95.3268 265.158 95.3268 220.482Z" fill="white"/>
<path fill-rule="evenodd" clip-rule="evenodd" d="M287.102 0.629529C289.66 1.46768 293.033 3.56733 294.69 7.73104L294.692 7.7372C296.286 11.7505 295.378 15.3677 294.386 17.4905C293.483 19.4248 292.28 20.7079 291.659 21.3207C290.381 22.5823 288.985 23.4791 288.201 23.9628C286.44 25.0483 284.119 26.2236 281.789 27.367C280.148 28.1723 278.358 29.0324 276.403 29.9713C272.329 31.9282 267.543 34.2273 261.915 37.0856C245.543 45.4007 223.601 57.7003 201.301 75.2278C178.328 93.2867 146.616 119.052 130.14 163.067C120.476 188.871 119.346 212.212 119.861 227.5C120.081 234.009 115.032 239.503 108.488 239.875C107.308 239.942 106.158 239.838 105.061 239.585C76.8524 256.105 59.5963 267.628 49.5219 275.589C57.7633 274.751 68.417 272.845 80.8219 269.853C110.861 262.608 149.421 249.42 185.334 231.809C221.616 214.018 255.92 191.351 280.193 171.83C290.285 163.713 298.401 156.333 304.141 150.244C304.108 150.252 304.075 150.261 304.042 150.269C289.48 153.961 265.265 162.4 226.103 178.828C219.962 181.404 212.881 178.546 210.289 172.445C207.696 166.343 210.572 159.308 216.714 156.731C256.124 140.199 281.696 131.18 298.073 127.028C306.164 124.977 312.789 123.905 318.064 124.012C322.671 124.106 330.48 125.229 334.623 132.363C338.693 139.37 335.858 146.594 334.302 149.833C332.343 153.911 329.264 158.114 325.78 162.181C318.702 170.44 308.132 180.218 295.381 190.473C269.787 211.057 233.981 234.702 196.018 253.318C158.445 271.743 118.204 285.519 86.517 293.162C70.732 296.969 56.6286 299.363 45.819 299.934C40.4972 300.215 35.3026 300.096 30.8755 299.172C27.3473 298.434 19.8983 296.292 16.7615 288.869L27.8908 284.226L16.7607 288.867C13.6423 281.483 17.1915 274.789 19.8095 271.109C22.7553 266.968 27.3598 262.541 33.4682 257.635C45.1313 248.268 64.607 235.338 95.6615 217.252C96.0096 200.592 98.5611 178.611 107.514 154.705C107.514 154.705 107.513 154.706 107.514 154.705C125.606 106.376 159.652 77.5131 182.914 59.1046C152.902 64.1612 119.422 64.2062 87.5557 51.7822C75.6179 47.1266 64.1712 40.7748 55.1604 35.7649C56.7829 38.3262 58.5375 41.0309 60.3688 43.854C60.5181 44.0842 60.6679 44.3151 60.8182 44.5468C65.6287 51.9633 70.9727 60.235 74.4608 67.3897C76.1855 70.9273 77.8459 74.9558 78.5662 78.9551C79.2342 82.6641 79.5747 89.1888 74.813 94.5787L74.8072 94.5852C68.7914 101.385 59.8984 100.62 55.838 99.9896C50.6844 99.1895 45.0153 97.2313 39.638 94.9972C28.7224 90.4622 16.2179 83.5909 5.96992 77.6245C0.218362 74.2759 -1.71209 66.9288 1.65813 61.2142C5.02835 55.4996 12.423 53.5815 18.1746 56.9301C28.2482 62.795 39.601 68.9838 48.9511 72.8685C49.4534 73.0772 49.9425 73.276 50.4183 73.4652C47.7765 68.773 44.3128 63.3775 40.5264 57.5398C40.2577 57.1257 39.9872 56.709 39.7154 56.2901C35.1578 49.2685 30.2029 41.6347 26.8761 35.1225C25.1371 31.7184 23.422 27.8327 22.6084 24.0049C21.9009 20.6762 21.1147 13.7224 26.3414 8.14787C29.9323 4.31832 34.4913 3.25476 37.9611 3.20772C41.1921 3.16392 44.1958 3.95237 46.4929 4.72569C51.1056 6.27854 56.3573 9.01719 61.324 11.725C63.2642 12.7828 65.2431 13.8809 67.2586 14.9995C76.2864 20.0095 86.0499 25.4278 96.3739 29.4542C96.3743 29.4544 96.3736 29.4541 96.3739 29.4542C135.854 44.8464 180.071 37.7859 215.995 26.2807C233.765 20.5899 249.032 13.9669 260.083 8.91426C262.383 7.86253 264.611 6.82723 266.654 5.87745C269.317 4.63942 271.668 3.54667 273.461 2.75221C275.032 2.05587 276.785 1.30959 278.324 0.816627C278.964 0.611561 280.434 0.157005 282.18 0.0339992C283.011 -0.0245496 284.896 -0.0933735 287.102 0.629529ZM54.8365 83.4253C54.8345 83.4236 54.8284 83.3827 54.8242 83.3075C54.8363 83.3893 54.8384 83.4269 54.8365 83.4253ZM60.6433 76.4138C60.8662 76.3863 60.9977 76.3931 61.0077 76.4034C61.0177 76.4136 60.9063 76.4274 60.6433 76.4138ZM46.1853 18.7879C46.1889 18.7909 46.2011 18.8537 46.2114 18.9675C46.1869 18.8419 46.1818 18.785 46.1853 18.7879ZM275.619 3.48683C275.621 3.48689 275.597 3.50357 275.544 3.53719C275.592 3.50367 275.618 3.48677 275.619 3.48683ZM35.084 275.487C35.0954 275.481 35.2178 275.514 35.417 275.6C35.1722 275.536 35.0726 275.492 35.084 275.487ZM39.1333 285.57C39.1278 285.572 39.155 285.513 39.2311 285.389C39.1767 285.506 39.1387 285.568 39.1333 285.57ZM318.459 148.063C318.453 148.067 318.368 148.059 318.219 148.026C318.391 148.042 318.465 148.059 318.459 148.063ZM312.702 139.089C312.754 138.876 312.803 138.758 312.815 138.752C312.827 138.747 312.801 138.853 312.702 139.089Z" fill="white"/>
</svg>
