<svg width="123" height="113" viewBox="0 0 123 113" fill="none" xmlns="http://www.w3.org/2000/svg">
<path fill-rule="evenodd" clip-rule="evenodd" d="M35.9872 64.6816C30.8152 64.2586 25.2452 62.3197 18.9507 58.5458C15.6147 56.5457 14.5317 52.2198 16.5319 48.8838C18.532 45.5478 22.8578 44.4648 26.1939 46.4649C31.2023 49.4677 34.6939 50.443 37.1356 50.6427C39.4818 50.8346 41.3887 50.3574 43.4066 49.4829C44.4826 49.0166 45.5436 48.4589 46.8124 47.7774C46.9114 47.7242 47.0125 47.6698 47.1155 47.6144C48.2454 47.0065 49.5985 46.2784 50.9905 45.6496C54.1863 44.2059 58.2285 42.9749 63.1489 43.7975C63.1496 43.7977 63.1504 43.7978 63.1511 43.7979C64.7448 44.0636 73.0143 45.5409 77.3122 53.1657C77.3755 53.2781 77.4357 53.3921 77.4928 53.5078C81.8514 62.3416 79.2693 71.3523 72.9288 76.5579C66.7229 81.6529 57.475 82.7022 49.2719 77.8135C45.9306 75.8222 44.8362 71.4992 46.8275 68.1579C48.8188 64.8166 53.1417 63.7222 56.4831 65.7135C59.6801 67.6188 62.4587 66.929 63.9908 65.6711C65.355 64.5511 66.2142 62.6605 64.9569 59.9411C64.5712 59.3345 63.9532 58.8228 63.0809 58.401C62.1285 57.9403 61.2075 57.7541 60.8332 57.6917L60.8276 57.6908C59.6813 57.4988 58.5892 57.6733 56.7894 58.4864C55.8616 58.9055 54.9235 59.4096 53.6875 60.0737C53.6185 60.1108 53.5486 60.1484 53.4777 60.1864C52.2185 60.8628 50.6872 61.6794 49.0074 62.4073C45.5137 63.9213 41.2547 65.1125 35.9872 64.6816Z" fill="#292544"/>
<path fill-rule="evenodd" clip-rule="evenodd" d="M39.9316 80.9412C53.3152 93.5679 74.4046 93.0068 87.0911 79.6643L87.0923 79.6631C99.7854 66.3201 99.2889 45.233 86.0086 32.4987C52.4882 3.22404 9.01765 48.9144 39.9316 80.9412ZM29.9221 90.8585C-13.8001 45.8331 48.2858 -19.4004 95.4142 22.007C95.4839 22.0682 95.5524 22.1308 95.6197 22.1948C114.634 40.2806 115.39 70.3574 97.3018 89.373C79.219 108.391 49.1362 109.141 30.121 91.0553C30.0534 90.991 29.9871 90.9254 29.9221 90.8585Z" fill="#292544"/>
<path fill-rule="evenodd" clip-rule="evenodd" d="M103.39 33.4695C106.584 35.6866 107.377 40.0728 105.162 43.2681C104.924 43.6104 104.672 43.9549 104.407 44.3004C100.835 48.9631 95.1294 53.495 89.928 55.9247C89.5055 56.1221 89.0863 56.3056 88.6718 56.4742C85.0701 57.9391 80.9626 56.208 79.4958 52.607C78.0291 49.006 79.758 44.8976 83.3582 43.429C83.6397 43.3142 83.9269 43.1854 84.2183 43.0442C85.7256 42.3118 87.4045 41.2108 88.9725 39.956C90.5722 38.6728 92.0293 37.2509 93.0636 35.9444C93.2519 35.706 93.4279 35.4696 93.59 35.2363C95.8088 32.0433 100.195 31.2524 103.39 33.4695Z" fill="#292544"/>
<path d="M122.03 100.526C122.03 103.602 120.808 106.551 118.633 108.726C116.459 110.901 113.509 112.123 110.433 112.123C95.0493 111.512 95.054 89.537 110.433 88.9285C111.956 88.9283 113.464 89.2282 114.871 89.811C116.278 90.3938 117.557 91.248 118.634 92.325C119.711 93.4019 120.565 94.6804 121.148 96.0875C121.73 97.4947 122.03 99.0028 122.03 100.526Z" fill="#292544"/>
<path d="M16.6682 11.4565C16.6682 13.673 15.7877 15.7988 14.2203 17.3662C12.653 18.9335 10.5272 19.8141 8.31063 19.8141C-2.77021 19.3736 -2.77021 3.53742 8.31063 3.09888C10.5272 3.09888 12.653 3.97941 14.2203 5.54676C15.7877 7.11411 16.6682 9.23989 16.6682 11.4565Z" fill="#292544"/>
<path d="M122.031 9.15577C122.031 11.584 121.066 13.9128 119.349 15.6299C117.632 17.3469 115.303 18.3116 112.875 18.3116C100.73 17.8289 100.734 0.480781 112.875 -1.52588e-05C115.303 -1.52588e-05 117.632 0.964607 119.349 2.68165C121.066 4.39869 122.031 6.7275 122.031 9.15577Z" fill="#292544"/>
</svg>
